<mxfile host="app.diagrams.net" modified="2024-06-08T11:50:44.681Z" agent="Mozilla/5.0 (Windows NT 10.0; Win64; x64) AppleWebKit/537.36 (KHTML, like Gecko) Chrome/125.0.0.0 Safari/537.36" etag="HeSjKrXLyK1sUmSq21Yx" version="24.5.2" type="device">
  <diagram name="Page-1" id="jvwqVg3a-UgCUHVzeh9x">
    <mxGraphModel dx="880" dy="460" grid="1" gridSize="10" guides="1" tooltips="1" connect="1" arrows="1" fold="1" page="1" pageScale="1" pageWidth="1000" pageHeight="700" math="0" shadow="0">
      <root>
        <mxCell id="0" />
        <mxCell id="1" parent="0" />
        <mxCell id="QA5m8i0c-p3gKMqU0FQ3-86" style="rounded=0;orthogonalLoop=1;jettySize=auto;html=1;entryX=0;entryY=0.5;entryDx=0;entryDy=0;endArrow=none;endFill=0;exitX=1;exitY=0.3333333333333333;exitDx=0;exitDy=0;exitPerimeter=0;" edge="1" parent="1" source="QA5m8i0c-p3gKMqU0FQ3-60" target="QA5m8i0c-p3gKMqU0FQ3-74">
          <mxGeometry relative="1" as="geometry" />
        </mxCell>
        <mxCell id="QA5m8i0c-p3gKMqU0FQ3-60" value="Employee" style="shape=umlActor;verticalLabelPosition=bottom;verticalAlign=top;html=1;fillColor=#dae8fc;strokeColor=#6c8ebf;strokeWidth=2;" vertex="1" parent="1">
          <mxGeometry x="90" y="40" width="30" height="60" as="geometry" />
        </mxCell>
        <mxCell id="QA5m8i0c-p3gKMqU0FQ3-61" value="Chef" style="shape=umlActor;verticalLabelPosition=bottom;verticalAlign=top;html=1;strokeWidth=2;fillColor=#dae8fc;strokeColor=#6c8ebf;" vertex="1" parent="1">
          <mxGeometry x="90" y="300" width="30" height="60" as="geometry" />
        </mxCell>
        <mxCell id="QA5m8i0c-p3gKMqU0FQ3-62" value="Admin" style="shape=umlActor;verticalLabelPosition=bottom;verticalAlign=top;html=1;fillColor=#dae8fc;strokeColor=#6c8ebf;strokeWidth=2;" vertex="1" parent="1">
          <mxGeometry x="670" y="40" width="30" height="60" as="geometry" />
        </mxCell>
        <mxCell id="QA5m8i0c-p3gKMqU0FQ3-65" value="Add Menu Item" style="ellipse;whiteSpace=wrap;html=1;" vertex="1" parent="1">
          <mxGeometry x="370" y="20" width="100" height="50" as="geometry" />
        </mxCell>
        <mxCell id="QA5m8i0c-p3gKMqU0FQ3-66" value="Generate Report" style="ellipse;whiteSpace=wrap;html=1;" vertex="1" parent="1">
          <mxGeometry x="370" y="380" width="100" height="50" as="geometry" />
        </mxCell>
        <mxCell id="QA5m8i0c-p3gKMqU0FQ3-67" value="Delete Menu Item" style="ellipse;whiteSpace=wrap;html=1;" vertex="1" parent="1">
          <mxGeometry x="370" y="140" width="100" height="50" as="geometry" />
        </mxCell>
        <mxCell id="QA5m8i0c-p3gKMqU0FQ3-68" value="Update Menu Item" style="ellipse;whiteSpace=wrap;html=1;" vertex="1" parent="1">
          <mxGeometry x="370" y="80" width="100" height="50" as="geometry" />
        </mxCell>
        <mxCell id="QA5m8i0c-p3gKMqU0FQ3-69" value="Send Recommendation" style="ellipse;whiteSpace=wrap;html=1;" vertex="1" parent="1">
          <mxGeometry x="370" y="320" width="100" height="50" as="geometry" />
        </mxCell>
        <mxCell id="QA5m8i0c-p3gKMqU0FQ3-70" value="Choose Food" style="ellipse;whiteSpace=wrap;html=1;" vertex="1" parent="1">
          <mxGeometry x="260" y="150" width="100" height="50" as="geometry" />
        </mxCell>
        <mxCell id="QA5m8i0c-p3gKMqU0FQ3-71" value="Select food items from recommendation" style="ellipse;whiteSpace=wrap;html=1;" vertex="1" parent="1">
          <mxGeometry x="370" y="200" width="150" height="50" as="geometry" />
        </mxCell>
        <mxCell id="QA5m8i0c-p3gKMqU0FQ3-72" value="Give feedback" style="ellipse;whiteSpace=wrap;html=1;" vertex="1" parent="1">
          <mxGeometry x="260" y="30" width="100" height="50" as="geometry" />
        </mxCell>
        <mxCell id="QA5m8i0c-p3gKMqU0FQ3-73" value="View Feedbacks" style="ellipse;whiteSpace=wrap;html=1;" vertex="1" parent="1">
          <mxGeometry x="370" y="260" width="100" height="50" as="geometry" />
        </mxCell>
        <mxCell id="QA5m8i0c-p3gKMqU0FQ3-74" value="View Recommendation" style="ellipse;whiteSpace=wrap;html=1;" vertex="1" parent="1">
          <mxGeometry x="260" y="90" width="100" height="50" as="geometry" />
        </mxCell>
        <mxCell id="QA5m8i0c-p3gKMqU0FQ3-82" value="" style="endArrow=none;html=1;rounded=0;entryX=0;entryY=0.5;entryDx=0;entryDy=0;exitX=1;exitY=0.3333333333333333;exitDx=0;exitDy=0;exitPerimeter=0;" edge="1" parent="1" source="QA5m8i0c-p3gKMqU0FQ3-61" target="QA5m8i0c-p3gKMqU0FQ3-71">
          <mxGeometry width="50" height="50" relative="1" as="geometry">
            <mxPoint x="220" y="240" as="sourcePoint" />
            <mxPoint x="270" y="190" as="targetPoint" />
          </mxGeometry>
        </mxCell>
        <mxCell id="QA5m8i0c-p3gKMqU0FQ3-83" value="" style="endArrow=none;html=1;rounded=0;entryX=0;entryY=0.5;entryDx=0;entryDy=0;" edge="1" parent="1" target="QA5m8i0c-p3gKMqU0FQ3-73">
          <mxGeometry width="50" height="50" relative="1" as="geometry">
            <mxPoint x="120" y="320" as="sourcePoint" />
            <mxPoint x="270" y="190" as="targetPoint" />
            <Array as="points" />
          </mxGeometry>
        </mxCell>
        <mxCell id="QA5m8i0c-p3gKMqU0FQ3-84" value="" style="endArrow=none;html=1;rounded=0;entryX=0;entryY=0.5;entryDx=0;entryDy=0;" edge="1" parent="1" target="QA5m8i0c-p3gKMqU0FQ3-69">
          <mxGeometry width="50" height="50" relative="1" as="geometry">
            <mxPoint x="120" y="320" as="sourcePoint" />
            <mxPoint x="380" y="295" as="targetPoint" />
            <Array as="points" />
          </mxGeometry>
        </mxCell>
        <mxCell id="QA5m8i0c-p3gKMqU0FQ3-85" value="" style="endArrow=none;html=1;rounded=0;entryX=0;entryY=0.5;entryDx=0;entryDy=0;" edge="1" parent="1" target="QA5m8i0c-p3gKMqU0FQ3-66">
          <mxGeometry width="50" height="50" relative="1" as="geometry">
            <mxPoint x="120" y="320" as="sourcePoint" />
            <mxPoint x="379" y="348" as="targetPoint" />
            <Array as="points" />
          </mxGeometry>
        </mxCell>
        <mxCell id="QA5m8i0c-p3gKMqU0FQ3-87" style="rounded=0;orthogonalLoop=1;jettySize=auto;html=1;entryX=0;entryY=0.5;entryDx=0;entryDy=0;endArrow=none;endFill=0;exitX=1;exitY=0.3333333333333333;exitDx=0;exitDy=0;exitPerimeter=0;" edge="1" parent="1" source="QA5m8i0c-p3gKMqU0FQ3-60" target="QA5m8i0c-p3gKMqU0FQ3-72">
          <mxGeometry relative="1" as="geometry">
            <mxPoint x="130" y="70" as="sourcePoint" />
            <mxPoint x="270" y="125" as="targetPoint" />
          </mxGeometry>
        </mxCell>
        <mxCell id="QA5m8i0c-p3gKMqU0FQ3-88" style="rounded=0;orthogonalLoop=1;jettySize=auto;html=1;entryX=0;entryY=0.5;entryDx=0;entryDy=0;endArrow=none;endFill=0;" edge="1" parent="1" target="QA5m8i0c-p3gKMqU0FQ3-70">
          <mxGeometry relative="1" as="geometry">
            <mxPoint x="120" y="60" as="sourcePoint" />
            <mxPoint x="280" y="135" as="targetPoint" />
          </mxGeometry>
        </mxCell>
        <mxCell id="QA5m8i0c-p3gKMqU0FQ3-89" style="rounded=0;orthogonalLoop=1;jettySize=auto;html=1;entryX=0;entryY=0.3333333333333333;entryDx=0;entryDy=0;endArrow=none;endFill=0;exitX=1;exitY=0.5;exitDx=0;exitDy=0;entryPerimeter=0;" edge="1" parent="1" source="QA5m8i0c-p3gKMqU0FQ3-65" target="QA5m8i0c-p3gKMqU0FQ3-62">
          <mxGeometry relative="1" as="geometry">
            <mxPoint x="130" y="70" as="sourcePoint" />
            <mxPoint x="270" y="65" as="targetPoint" />
          </mxGeometry>
        </mxCell>
        <mxCell id="QA5m8i0c-p3gKMqU0FQ3-90" style="rounded=0;orthogonalLoop=1;jettySize=auto;html=1;entryX=0;entryY=0.3333333333333333;entryDx=0;entryDy=0;endArrow=none;endFill=0;exitX=1;exitY=0.5;exitDx=0;exitDy=0;entryPerimeter=0;" edge="1" parent="1" source="QA5m8i0c-p3gKMqU0FQ3-68" target="QA5m8i0c-p3gKMqU0FQ3-62">
          <mxGeometry relative="1" as="geometry">
            <mxPoint x="480" y="55" as="sourcePoint" />
            <mxPoint x="680" y="70" as="targetPoint" />
          </mxGeometry>
        </mxCell>
        <mxCell id="QA5m8i0c-p3gKMqU0FQ3-91" style="rounded=0;orthogonalLoop=1;jettySize=auto;html=1;entryX=0;entryY=0.3333333333333333;entryDx=0;entryDy=0;endArrow=none;endFill=0;exitX=1;exitY=0.5;exitDx=0;exitDy=0;entryPerimeter=0;" edge="1" parent="1" source="QA5m8i0c-p3gKMqU0FQ3-67" target="QA5m8i0c-p3gKMqU0FQ3-62">
          <mxGeometry relative="1" as="geometry">
            <mxPoint x="480" y="115" as="sourcePoint" />
            <mxPoint x="680" y="70" as="targetPoint" />
          </mxGeometry>
        </mxCell>
      </root>
    </mxGraphModel>
  </diagram>
</mxfile>
